<svg width="35" height="33" viewBox="0 0 35 33" fill="none" xmlns="http://www.w3.org/2000/svg">
<path d="M17.3123 9.24706C19.721 9.24706 20.0067 9.25642 20.9577 9.30164C21.941 9.34841 22.9537 9.58074 23.6701 10.3237C24.3933 11.0737 24.6106 12.1137 24.6557 13.1366C24.6993 14.1228 24.7083 14.4191 24.7083 16.917C24.7083 19.4149 24.6993 19.7111 24.6557 20.6974C24.6113 21.7116 24.3821 22.7719 23.6701 23.5102C22.9469 24.2602 21.9448 24.4855 20.9577 24.5323C20.0067 24.5775 19.721 24.5869 17.3123 24.5869C14.9036 24.5869 14.618 24.5775 13.667 24.5323C12.6964 24.4863 11.6605 24.2431 10.9546 23.5102C10.2351 22.7641 10.0141 21.714 9.96898 20.6974C9.92538 19.7111 9.91636 19.4149 9.91636 16.917C9.91636 14.4191 9.92538 14.1228 9.96898 13.1366C10.0133 12.1262 10.2449 11.0597 10.9546 10.3237C11.6763 9.57528 12.6829 9.34841 13.667 9.30164C14.618 9.25642 14.9036 9.24706 17.3123 9.24706ZM17.3123 7.56152C14.8623 7.56152 14.5548 7.57244 13.5925 7.61766C12.198 7.68392 10.8132 8.08621 9.80509 9.13168C8.7932 10.181 8.40904 11.614 8.34514 13.0594C8.30154 14.0573 8.29102 14.3762 8.29102 16.917C8.29102 19.4578 8.30154 19.7766 8.34514 20.7745C8.40904 22.2192 8.79847 23.6591 9.80509 24.7023C10.8162 25.7509 12.2003 26.15 13.5925 26.2163C14.5548 26.2615 14.8623 26.2724 17.3123 26.2724C19.7624 26.2724 20.0699 26.2615 21.0321 26.2163C22.4259 26.15 23.8122 25.747 24.8196 24.7023C25.8322 23.6521 26.2156 22.22 26.2795 20.7745C26.3231 19.7766 26.3337 19.4578 26.3337 16.917C26.3337 14.3762 26.3231 14.0573 26.2795 13.0594C26.2156 11.6132 25.827 10.1764 24.8196 9.13168C23.81 8.08465 22.4222 7.68314 21.0321 7.61766C20.0699 7.57244 19.7624 7.56152 17.3123 7.56152Z" fill="white"/>
<path d="M17.3124 12.1128C14.7541 12.1128 12.6799 14.2638 12.6799 16.9168C12.6799 19.5699 14.7541 21.7208 17.3124 21.7208C19.8707 21.7208 21.9448 19.5699 21.9448 16.9168C21.9448 14.2638 19.8707 12.1128 17.3124 12.1128ZM17.3124 20.0353C15.6517 20.0353 14.3053 18.639 14.3053 16.9168C14.3053 15.1946 15.6517 13.7983 17.3124 13.7983C18.9731 13.7983 20.3195 15.1946 20.3195 16.9168C20.3195 18.639 18.9731 20.0353 17.3124 20.0353Z" fill="white"/>
<path d="M29.0891 9.60889C29.828 9.60889 30.427 8.9877 30.427 8.22143C30.427 7.45517 29.828 6.83398 29.0891 6.83398C28.3502 6.83398 27.7512 7.45517 27.7512 8.22143C27.7512 8.9877 28.3502 9.60889 29.0891 9.60889Z" fill="white"/>
<rect x="0.924805" y="1.28125" width="32.7752" height="30.7727" rx="7.25" stroke="white" stroke-width="1.5"/>
</svg>
