<svg width="23" height="21" viewBox="0 0 23 21" fill="none" xmlns="http://www.w3.org/2000/svg">
<path d="M9.31234 3.24706C11.721 3.24706 12.0067 3.25642 12.9577 3.30164C13.941 3.34841 14.9537 3.58074 15.6701 4.32372C16.3933 5.07371 16.6106 6.11373 16.6557 7.13659C16.6993 8.12281 16.7083 8.41907 16.7083 10.917C16.7083 13.4149 16.6993 13.7111 16.6557 14.6974C16.6113 15.7116 16.3821 16.7719 15.6701 17.5102C14.9469 18.2602 13.9448 18.4855 12.9577 18.5323C12.0067 18.5775 11.721 18.5869 9.31234 18.5869C6.90365 18.5869 6.61797 18.5775 5.66697 18.5323C4.69643 18.4863 3.66048 18.2431 2.95456 17.5102C2.23511 16.7641 2.01409 15.714 1.96898 14.6974C1.92538 13.7111 1.91636 13.4149 1.91636 10.917C1.91636 8.41907 1.92538 8.12281 1.96898 7.13659C2.01334 6.1262 2.24488 5.05968 2.95456 4.32372C3.67627 3.57528 4.6829 3.34841 5.66697 3.30164C6.61797 3.25642 6.90365 3.24706 9.31234 3.24706ZM9.31234 1.56152C6.8623 1.56152 6.55482 1.57244 5.59255 1.61766C4.198 1.68392 2.81323 2.08621 1.80509 3.13168C0.793203 4.18105 0.409045 5.61399 0.345144 7.05941C0.301541 8.05732 0.291016 8.37619 0.291016 10.917C0.291016 13.4578 0.301541 13.7766 0.345144 14.7745C0.409045 16.2192 0.798465 17.6591 1.80509 18.7023C2.81623 19.7509 4.20026 20.15 5.59255 20.2163C6.55482 20.2615 6.8623 20.2724 9.31234 20.2724C11.7624 20.2724 12.0699 20.2615 13.0321 20.2163C14.4259 20.15 15.8122 19.747 16.8196 18.7023C17.8322 17.6521 18.2156 16.22 18.2795 14.7745C18.3231 13.7766 18.3337 13.4578 18.3337 10.917C18.3337 8.37619 18.3231 8.05732 18.2795 7.05941C18.2156 5.61321 17.827 4.17637 16.8196 3.13168C15.81 2.08465 14.4222 1.68314 13.0321 1.61766C12.0699 1.57244 11.7624 1.56152 9.31234 1.56152Z" fill="white"/>
<path d="M9.31238 6.11279C6.75408 6.11279 4.67993 8.26377 4.67993 10.9168C4.67993 13.5699 6.75408 15.7208 9.31238 15.7208C11.8707 15.7208 13.9448 13.5699 13.9448 10.9168C13.9448 8.26377 11.8707 6.11279 9.31238 6.11279ZM9.31238 14.0353C7.65171 14.0353 6.30527 12.639 6.30527 10.9168C6.30527 9.19463 7.65171 7.79833 9.31238 7.79833C10.9731 7.79833 12.3195 9.19463 12.3195 10.9168C12.3195 12.639 10.9731 14.0353 9.31238 14.0353Z" fill="white"/>
<path d="M21.0891 3.60889C21.828 3.60889 22.427 2.9877 22.427 2.22143C22.427 1.45517 21.828 0.833984 21.0891 0.833984C20.3502 0.833984 19.7512 1.45517 19.7512 2.22143C19.7512 2.9877 20.3502 3.60889 21.0891 3.60889Z" fill="white"/>
</svg>
