<svg width="21" height="21" viewBox="0 0 21 21" fill="none" xmlns="http://www.w3.org/2000/svg">
<path d="M19.9334 14.8699L17.213 12.1495C16.2414 11.1779 14.5897 11.5666 14.2011 12.8296C13.9096 13.704 12.938 14.1898 12.0636 13.9955C10.1205 13.5097 7.49725 10.9836 7.01146 8.94328C6.71999 8.06883 7.30293 7.09726 8.17735 6.80582C9.44039 6.41719 9.82902 4.76552 8.85745 3.79395L6.13705 1.07355C5.35979 0.393452 4.1939 0.393452 3.5138 1.07355L1.66782 2.91954C-0.178168 4.86268 1.86213 10.012 6.42852 14.5784C10.9949 19.1448 16.1442 21.2823 18.0874 19.3391L19.9334 17.4931C20.6135 16.7159 20.6135 15.55 19.9334 14.8699Z" fill="white"/>
</svg>
