<svg width="21" height="28" viewBox="0 0 21 28" fill="none" xmlns="http://www.w3.org/2000/svg">
<path d="M10.7184 0.188965C5.06354 0.188965 0.464844 4.78766 0.464844 10.4425C0.464844 17.5499 9.72034 26.8874 10.1134 27.2822C10.2809 27.4479 10.4996 27.5317 10.7184 27.5317C10.9371 27.5317 11.1558 27.4479 11.3233 27.2822C11.7164 26.8874 20.9719 17.5499 20.9719 10.4425C20.9719 4.78766 16.3732 0.188965 10.7184 0.188965Z" fill="white"/>
<path d="M10.7183 15.5689C13.5497 15.5689 15.8451 13.2736 15.8451 10.4422C15.8451 7.61076 13.5497 5.31543 10.7183 5.31543C7.88688 5.31543 5.59155 7.61076 5.59155 10.4422C5.59155 13.2736 7.88688 15.5689 10.7183 15.5689Z" fill="#FFC107"/>
</svg>
