<svg width="22" height="18" viewBox="0 0 22 18" fill="none" xmlns="http://www.w3.org/2000/svg">
<path d="M17.2404 17.3641C17.0859 17.3653 16.9347 17.3184 16.808 17.2299L9.64248 12.2043C9.55383 12.1418 9.47989 12.0608 9.4258 11.9668C9.37171 11.8728 9.33878 11.7681 9.32931 11.66C9.31927 11.5508 9.33344 11.4407 9.37082 11.3376C9.40819 11.2345 9.46785 11.1409 9.54555 11.0635L11.4991 9.08015L8.15122 11.1754L9.64248 14.5978L10.2986 13.9417C10.438 13.8013 10.6275 13.722 10.8254 13.7213C11.0233 13.7206 11.2133 13.7985 11.3537 13.9379C11.4941 14.0773 11.5734 14.2668 11.5741 14.4647C11.5748 14.6626 11.4968 14.8526 11.3574 14.993L9.86617 16.4246C9.7802 16.5114 9.6742 16.5758 9.55751 16.6121C9.44081 16.6484 9.317 16.6554 9.19695 16.6325C9.07691 16.6097 8.96431 16.5577 8.86907 16.4812C8.77384 16.4046 8.69888 16.3058 8.65079 16.1935L6.49592 11.1679C6.42693 11.0036 6.41909 10.82 6.4738 10.6504C6.52851 10.4808 6.64217 10.3364 6.79417 10.2433L16.1295 4.49453C16.2851 4.3987 16.4706 4.3634 16.6506 4.39536C16.8306 4.42731 16.9926 4.52429 17.1058 4.66785C17.219 4.81141 17.2755 4.99156 17.2646 5.17406C17.2537 5.35655 17.1761 5.52867 17.0466 5.65771L11.2158 11.4885L16.7632 15.3807L19.7458 2.70502L3.5134 8.74462L5.31037 9.49025C5.40684 9.52263 5.49566 9.57442 5.57136 9.64243C5.64707 9.71044 5.70805 9.79322 5.75055 9.88568C5.79305 9.97814 5.81618 10.0783 5.81851 10.1801C5.82083 10.2818 5.80231 10.3829 5.76408 10.4772C5.72584 10.5716 5.66871 10.657 5.5962 10.7284C5.52368 10.7998 5.43732 10.8556 5.34243 10.8924C5.24754 10.9291 5.14612 10.9461 5.04444 10.9422C4.94275 10.9383 4.84294 10.9136 4.75115 10.8697L1.16467 9.41568C1.0232 9.36203 0.901398 9.2666 0.815451 9.14207C0.729503 9.01755 0.683472 8.86983 0.683472 8.71852C0.683472 8.56722 0.729503 8.41949 0.815451 8.29497C0.901398 8.17044 1.0232 8.07502 1.16467 8.02136L20.566 0.878223C20.6915 0.832921 20.827 0.822169 20.9581 0.847089C21.0893 0.87201 21.2114 0.931688 21.3116 1.01989C21.4153 1.11068 21.4917 1.22842 21.5325 1.36004C21.5733 1.49166 21.5769 1.63202 21.5427 1.76552L17.9637 16.79C17.9361 16.9094 17.8795 17.0202 17.7988 17.1125C17.7182 17.2049 17.6161 17.2759 17.5014 17.3194C17.4175 17.3487 17.3293 17.3638 17.2404 17.3641Z" fill="white"/>
</svg>
