<svg width="35" height="33" viewBox="0 0 35 33" fill="none" xmlns="http://www.w3.org/2000/svg">
<path d="M22.2404 24.3641C22.0859 24.3653 21.9347 24.3184 21.808 24.2299L14.6425 19.2043C14.5538 19.1418 14.4799 19.0608 14.4258 18.9668C14.3717 18.8728 14.3388 18.7681 14.3293 18.66C14.3193 18.5508 14.3334 18.4407 14.3708 18.3376C14.4082 18.2345 14.4679 18.1409 14.5455 18.0635L16.4991 16.0802L13.1512 18.1754L14.6425 21.5978L15.2986 20.9417C15.438 20.8013 15.6275 20.722 15.8254 20.7213C16.0233 20.7206 16.2133 20.7985 16.3537 20.9379C16.4941 21.0773 16.5734 21.2668 16.5741 21.4647C16.5748 21.6626 16.4968 21.8526 16.3574 21.993L14.8662 23.4246C14.7802 23.5114 14.6742 23.5758 14.5575 23.6121C14.4408 23.6484 14.317 23.6554 14.197 23.6325C14.0769 23.6097 13.9643 23.5577 13.8691 23.4812C13.7738 23.4046 13.6989 23.3058 13.6508 23.1935L11.4959 18.1679C11.4269 18.0036 11.4191 17.82 11.4738 17.6504C11.5285 17.4808 11.6422 17.3364 11.7942 17.2433L21.1295 11.4945C21.2851 11.3987 21.4706 11.3634 21.6506 11.3954C21.8306 11.4273 21.9926 11.5243 22.1058 11.6678C22.219 11.8114 22.2755 11.9916 22.2646 12.1741C22.2537 12.3566 22.1761 12.5287 22.0466 12.6577L16.2158 18.4885L21.7632 22.3807L24.7458 9.70502L8.5134 15.7446L10.3104 16.4902C10.4068 16.5226 10.4957 16.5744 10.5714 16.6424C10.6471 16.7104 10.708 16.7932 10.7506 16.8857C10.7931 16.9781 10.8162 17.0783 10.8185 17.1801C10.8208 17.2818 10.8023 17.3829 10.7641 17.4772C10.7258 17.5716 10.6687 17.657 10.5962 17.7284C10.5237 17.7998 10.4373 17.8556 10.3424 17.8924C10.2475 17.9291 10.1461 17.9461 10.0444 17.9422C9.94275 17.9383 9.84294 17.9136 9.75115 17.8697L6.16467 16.4157C6.0232 16.362 5.9014 16.2666 5.81545 16.1421C5.7295 16.0175 5.68347 15.8698 5.68347 15.7185C5.68347 15.5672 5.7295 15.4195 5.81545 15.295C5.9014 15.1704 6.0232 15.075 6.16467 15.0214L25.566 7.87822C25.6915 7.83292 25.827 7.82217 25.9581 7.84709C26.0893 7.87201 26.2114 7.93169 26.3116 8.01989C26.4153 8.11068 26.4917 8.22842 26.5325 8.36004C26.5733 8.49166 26.5769 8.63202 26.5427 8.76552L22.9637 23.79C22.9361 23.9094 22.8795 24.0202 22.7988 24.1125C22.7182 24.2049 22.6161 24.2759 22.5014 24.3194C22.4175 24.3487 22.3293 24.3638 22.2404 24.3641Z" fill="white"/>
<rect x="0.75" y="1.28125" width="32.7752" height="30.7727" rx="7.25" stroke="white" stroke-width="1.5"/>
</svg>
