<svg width="22" height="23" viewBox="0 0 22 23" fill="none" xmlns="http://www.w3.org/2000/svg">
<path fill-rule="evenodd" clip-rule="evenodd" d="M18.4934 4.00932C16.4726 1.98675 13.786 0.871993 10.924 0.871094C5.02635 0.871094 0.226338 5.67021 0.223639 11.5706C0.222739 13.4564 0.715787 15.2972 1.6524 16.9203L0.133667 22.4644L5.80551 20.9763C7.36833 21.8292 9.12818 22.2782 10.9186 22.2791H10.9231C16.8199 22.2791 21.6208 17.4791 21.6235 11.5787C21.6253 8.72026 20.5133 6.031 18.4934 4.00932ZM10.924 20.4715H10.9204C9.32432 20.4715 7.75971 20.0424 6.39393 19.2317L6.06913 19.0392L2.70327 19.9218L3.60209 16.6396L3.39066 16.3031C2.49993 14.887 2.03028 13.2504 2.03118 11.5706C2.03298 6.6671 6.02324 2.67773 10.9285 2.67773C13.3038 2.67773 15.5369 3.60445 17.2158 5.28513C18.8947 6.96671 19.8187 9.20072 19.8178 11.5769C19.8151 16.4822 15.8257 20.4715 10.924 20.4715ZM15.8023 13.8109C15.5351 13.6768 14.2206 13.0299 13.975 12.9409C13.7303 12.8518 13.5521 12.8068 13.3731 13.074C13.194 13.3412 12.683 13.944 12.5264 14.1231C12.3708 14.3012 12.2142 14.3237 11.947 14.1897C11.6798 14.0556 10.8179 13.774 9.79667 12.8626C9.00222 12.1536 8.46509 11.2782 8.30944 11.0101C8.15378 10.7419 8.29324 10.598 8.4264 10.4648C8.54696 10.3452 8.69362 10.1526 8.82768 9.99607C8.96263 9.84132 9.00672 9.72975 9.09669 9.55071C9.18576 9.37256 9.14168 9.21601 9.0742 9.08195C9.00672 8.94879 8.47229 7.6325 8.25005 7.09717C8.03322 6.57533 7.81279 6.64641 7.64814 6.63831C7.49249 6.63021 7.31434 6.62931 7.1353 6.62931C6.95715 6.62931 6.66744 6.69589 6.42272 6.96401C6.178 7.23212 5.48701 7.87902 5.48701 9.19442C5.48701 10.5107 6.44521 11.782 6.57837 11.9602C6.71153 12.1383 8.46329 14.8393 11.1454 15.9972C11.7833 16.2725 12.2817 16.4372 12.6695 16.5604C13.3101 16.7638 13.8931 16.735 14.3538 16.6666C14.8675 16.5901 15.9355 16.0197 16.1586 15.3953C16.3817 14.7709 16.3817 14.2347 16.3143 14.124C16.2477 14.0115 16.0695 13.9449 15.8023 13.8109Z" fill="white"/>
</svg>
