<svg width="40" height="36" viewBox="0 0 40 36" fill="none" xmlns="http://www.w3.org/2000/svg">
<path fill-rule="evenodd" clip-rule="evenodd" d="M29.4934 10.0093C27.4726 7.98675 24.786 6.87199 21.924 6.87109C16.0264 6.87109 11.2263 11.6702 11.2236 17.5706C11.2227 19.4564 11.7158 21.2972 12.6524 22.9203L11.1337 28.4644L16.8055 26.9763C18.3683 27.8292 20.1282 28.2782 21.9186 28.2791H21.9231C27.8199 28.2791 32.6208 23.4791 32.6235 17.5787C32.6253 14.7203 31.5133 12.031 29.4934 10.0093ZM21.924 26.4715H21.9204C20.3243 26.4715 18.7597 26.0424 17.3939 25.2317L17.0691 25.0392L13.7033 25.9218L14.6021 22.6396L14.3907 22.3031C13.4999 20.887 13.0303 19.2504 13.0312 17.5706C13.033 12.6671 17.0232 8.67773 21.9285 8.67773C24.3038 8.67773 26.5369 9.60445 28.2158 11.2851C29.8947 12.9667 30.8187 15.2007 30.8178 17.5769C30.8151 22.4822 26.8257 26.4715 21.924 26.4715ZM26.8023 19.8109C26.5351 19.6768 25.2206 19.0299 24.975 18.9409C24.7303 18.8518 24.5521 18.8068 24.3731 19.074C24.194 19.3412 23.683 19.944 23.5264 20.1231C23.3708 20.3012 23.2142 20.3237 22.947 20.1897C22.6798 20.0556 21.8179 19.774 20.7967 18.8626C20.0022 18.1536 19.4651 17.2782 19.3094 17.0101C19.1538 16.7419 19.2932 16.598 19.4264 16.4648C19.547 16.3452 19.6936 16.1526 19.8277 15.9961C19.9626 15.8413 20.0067 15.7298 20.0967 15.5507C20.1858 15.3726 20.1417 15.216 20.0742 15.082C20.0067 14.9488 19.4723 13.6325 19.2501 13.0972C19.0332 12.5753 18.8128 12.6464 18.6481 12.6383C18.4925 12.6302 18.3143 12.6293 18.1353 12.6293C17.9572 12.6293 17.6674 12.6959 17.4227 12.964C17.178 13.2321 16.487 13.879 16.487 15.1944C16.487 16.5107 17.4452 17.782 17.5784 17.9602C17.7115 18.1383 19.4633 20.8393 22.1454 21.9972C22.7833 22.2725 23.2817 22.4372 23.6695 22.5604C24.3101 22.7638 24.8931 22.735 25.3538 22.6666C25.8675 22.5901 26.9355 22.0197 27.1586 21.3953C27.3817 20.7709 27.3817 20.2347 27.3143 20.124C27.2477 20.0115 27.0695 19.9449 26.8023 19.8109Z" fill="white"/>
<rect x="1.09937" y="1.3584" width="37.6611" height="33.1728" rx="8.25" stroke="white" stroke-width="1.5"/>
</svg>
