<svg width="23" height="22" viewBox="0 0 23 22" fill="none" xmlns="http://www.w3.org/2000/svg">
<path d="M22.1153 1.62317C22.1153 1.71167 22.0808 1.80016 22.0119 1.86764C21.8738 2.00273 21.6502 2.00273 21.5123 1.86764L21.3558 1.71457L21.3558 17.5021L21.5121 17.349C21.6502 17.2139 21.8738 17.2139 22.0117 17.349C22.1498 17.4839 22.1498 17.703 22.0117 17.8378L21.2609 18.5724C21.1908 18.641 21.0986 18.6747 21.0066 18.6736C21.0052 18.6736 21.0037 18.6736 21.0022 18.6736C20.8807 18.6736 20.7736 18.6136 20.71 18.5222L19.9929 17.8205C19.8548 17.6855 19.8548 17.4665 19.9929 17.3317C20.131 17.1966 20.3545 17.1966 20.4925 17.3317L20.6489 17.4848L20.6489 1.69715L20.4925 1.85021C20.3544 1.9853 20.1308 1.9853 19.9929 1.85021C19.8548 1.71526 19.8548 1.49624 19.9929 1.36142L20.7438 0.626794C20.8138 0.558072 20.906 0.524472 20.998 0.525579C20.9996 0.525579 21.001 0.525579 21.0024 0.525579C21.1239 0.525579 21.231 0.585588 21.2946 0.676984L22.0117 1.37871C22.0808 1.44619 22.1153 1.53468 22.1153 1.62317ZM19.6598 20.4414C19.6598 20.5603 19.5983 20.6653 19.5049 20.7274L18.7878 21.429C18.6497 21.564 18.4262 21.564 18.2882 21.429C18.1502 21.294 18.1502 21.075 18.2882 20.9402L18.4447 20.7871L2.30816 20.7871L2.46461 20.9402C2.60268 21.0751 2.60268 21.2941 2.46461 21.429C2.32653 21.564 2.10295 21.564 1.96502 21.429L1.21416 20.6943C1.14406 20.6257 1.10831 20.5361 1.11071 20.4457C1.11368 20.3232 1.17091 20.2183 1.2656 20.1553L1.98269 19.4538C2.12076 19.3187 2.34434 19.3187 2.48227 19.4538C2.62035 19.5887 2.62035 19.8077 2.48227 19.9425L2.32582 20.0956L18.4623 20.0956L18.3059 19.9425C18.1678 19.8076 18.1678 19.5886 18.3059 19.4538C18.444 19.3187 18.6675 19.3187 18.8055 19.4538L19.5563 20.1884C19.6264 20.257 19.6618 20.348 19.6598 20.437C19.6598 20.4385 19.6598 20.4399 19.6598 20.4414ZM18.6602 0.871255L18.6602 17.5762C18.6602 17.7671 18.5021 17.9219 18.3069 17.9219L1.46416 17.9219C1.26899 17.9219 1.11085 17.7671 1.11085 17.5762L1.11085 7.59385C1.11085 7.4029 1.26899 7.24817 1.46416 7.24817L8.32169 7.24817L8.32169 0.871395C8.32169 0.680442 8.47983 0.525718 8.675 0.525718L18.3067 0.525718C18.5019 0.525579 18.6602 0.680303 18.6602 0.871255ZM17.9536 7.26297L17.9536 1.21693L9.02831 1.21693L9.02831 7.26297L17.9536 7.26297ZM17.9536 13.885L17.9536 7.95418L13.2209 7.95418L13.2209 13.885L17.9536 13.885ZM17.9536 17.2305L17.9536 14.5765L13.2209 14.5765L13.2209 17.2305L17.9536 17.2305ZM12.5142 14.2307L12.5142 7.95418L8.675 7.95418C8.63925 7.95418 8.60476 7.94893 8.57212 7.93939L4.88268 7.93939L4.88268 17.2305L12.5142 17.2305L12.5142 14.2307ZM4.17605 12.2467L4.17605 7.93939L1.81748 7.93939L1.81748 12.2467L4.17605 12.2467ZM4.17605 17.2305L4.17605 12.9382L1.81748 12.9382L1.81748 17.2305L4.17605 17.2305Z" fill="white" stroke="white" stroke-width="0.75"/>
</svg>
