<svg width="20" height="8" viewBox="0 0 20 8" fill="none" xmlns="http://www.w3.org/2000/svg">
<path d="M19.4597 4.63379C19.7359 4.63379 19.9597 4.40993 19.9597 4.13379C19.9597 3.85765 19.7359 3.63379 19.4597 3.63379L19.4597 4.63379ZM0.388342 3.78023C0.193079 3.9755 0.193079 4.29208 0.388342 4.48734L3.57032 7.66932C3.76558 7.86458 4.08217 7.86458 4.27743 7.66932C4.47269 7.47406 4.47269 7.15748 4.27743 6.96221L1.449 4.13379L4.27743 1.30536C4.47269 1.1101 4.47269 0.793516 4.27743 0.598254C4.08217 0.402992 3.76559 0.402992 3.57032 0.598254L0.388342 3.78023ZM19.4597 3.63379L0.741896 3.63379L0.741896 4.63379L19.4597 4.63379L19.4597 3.63379Z" fill="#000000"/>
</svg>
