<svg width="49" height="16" viewBox="0 0 49 16" fill="none" xmlns="http://www.w3.org/2000/svg">
<path d="M47.0964 9.29321C47.6487 9.29321 48.0964 8.8455 48.0964 8.29321C48.0964 7.74093 47.6487 7.29321 47.0964 7.29321L47.0964 9.29321ZM0.873306 7.5861C0.482784 7.97663 0.482784 8.60979 0.873306 9.00032L7.23727 15.3643C7.62779 15.7548 8.26096 15.7548 8.65148 15.3643C9.04201 14.9738 9.04201 14.3406 8.65148 13.9501L2.99463 8.29321L8.65148 2.63636C9.04201 2.24583 9.04201 1.61267 8.65148 1.22214C8.26096 0.831617 7.62779 0.831617 7.23727 1.22214L0.873306 7.5861ZM47.0964 7.29321L1.58041 7.29321L1.58041 9.29321L47.0964 9.29321L47.0964 7.29321Z" fill="#CD9300"/>
</svg>
