<svg width="32" height="25" viewBox="0 0 32 25" fill="none" xmlns="http://www.w3.org/2000/svg">
<path d="M30.7255 16.5061C30.5257 16.3753 30.2532 16.4258 30.1169 16.6182C30.0802 16.6701 29.1985 17.8885 27.5793 17.8885C25.96 17.8885 25.0783 16.6701 25.0425 16.6197C24.8812 16.373 24.4755 16.3733 24.3144 16.62C24.3056 16.6327 23.4138 17.8886 21.7801 17.8886C20.4107 17.8886 19.569 17.0174 19.3201 16.7178V10.1583H30.4798C30.7221 10.1583 30.9184 9.96879 30.9184 9.73497C30.9184 9.50114 30.7221 9.31164 30.4798 9.31164H26.9532V6.2264C26.9532 3.42744 24.6221 1.12858 21.7568 1.10183C20.3472 1.08814 19.0179 1.60987 18.0142 2.56935C17.5282 3.03391 17.149 3.57345 16.886 4.16036C16.0754 2.37845 14.2523 1.1216 12.1382 1.10183C12.1208 1.10166 12.1034 1.1016 12.086 1.1016C10.6956 1.1016 9.38678 1.6217 8.39545 2.56935C7.39158 3.52906 6.83864 4.80681 6.83864 6.1672V9.3117H1.51091C1.26867 9.3117 1.07235 9.50119 1.07235 9.73502C1.07235 9.96885 1.26867 10.1583 1.51091 10.1583H6.83864V11.83C6.83864 12.0638 7.03496 12.2533 7.2772 12.2533C7.51944 12.2533 7.71576 12.0638 7.71576 11.83V6.1672C7.71576 5.03444 8.17632 3.97036 9.01271 3.17085C9.8488 2.37163 10.9549 1.93496 12.1298 1.94842C14.516 1.97067 16.4574 3.8898 16.4574 6.2264V9.31164H15.3489V6.1672C15.3489 4.46038 13.9108 3.04794 12.1433 3.0187C12.1246 3.01842 12.1061 3.01825 12.0875 3.01825C11.2411 3.01825 10.4391 3.33782 9.82388 3.92157C9.1886 4.52437 8.82427 5.36049 8.82427 6.21553V17.577C8.23964 17.2936 7.86492 16.8935 7.7157 16.713V13.5232C7.7157 13.2894 7.51938 13.0999 7.27714 13.0999C7.0349 13.0999 6.83858 13.2894 6.83858 13.5232V16.7173C6.58881 17.0179 5.74717 17.8885 4.37833 17.8885C2.75907 17.8885 1.8774 16.6701 1.84157 16.6197C1.70641 16.4257 1.43394 16.3742 1.23295 16.5046C1.03197 16.635 0.978572 16.898 1.11373 17.092C1.16042 17.1591 2.28229 18.7352 4.37827 18.7352C5.81125 18.7352 6.78886 17.9986 7.27889 17.5111C7.76892 17.9986 8.74659 18.7352 10.1795 18.7352C11.6121 18.7352 12.5886 17.999 13.0783 17.5113C13.5684 17.9989 14.546 18.7352 15.9786 18.7352C17.4116 18.7352 18.3892 17.9986 18.8792 17.5111C19.3692 17.9986 20.3469 18.7352 21.7798 18.7352C23.2125 18.7352 24.189 17.999 24.6786 17.5113C25.1687 17.9989 26.1463 18.7352 27.5789 18.7352C29.675 18.7352 30.7968 17.1591 30.8435 17.092C30.9785 16.8985 30.9253 16.637 30.7255 16.5061ZM9.70139 13.0999H16.4574V14.2851H9.70139V13.0999ZM16.4574 12.2533H9.70139V10.1583H16.4574V12.2533ZM10.4388 4.52538C10.8984 4.08927 11.4982 3.85488 12.1282 3.86524C13.4205 3.88665 14.4718 4.91931 14.4718 6.16726V9.31175H9.70145V6.21559C9.70139 5.58604 9.97018 4.97 10.4388 4.52538ZM13.4421 16.6197C13.2809 16.3743 12.8772 16.3742 12.7149 16.6186C12.6783 16.6705 11.7986 17.8885 10.1797 17.8885C10.0121 17.8885 9.853 17.8749 9.70139 17.8514V15.1317H16.4574V17.8514C16.3057 17.8748 16.1464 17.8885 15.9788 17.8885C14.3596 17.8885 13.4778 16.6701 13.4421 16.6197ZM17.3344 17.5768V6.1672C17.3344 5.03444 17.795 3.97036 18.6314 3.17085C19.4675 2.37163 20.5736 1.93496 21.7484 1.94842C24.1346 1.97067 26.076 3.8898 26.076 6.2264V9.31164H24.9675V8.37063C24.9675 8.13681 24.7712 7.94731 24.529 7.94731C24.2867 7.94731 24.0904 8.13681 24.0904 8.37063V9.31164H19.32V6.21548C19.32 5.58598 19.5888 4.96995 20.0574 4.52527C20.517 4.08916 21.1157 3.85477 21.7468 3.86513C23.0391 3.88654 24.0904 4.91919 24.0904 6.16714V6.67739C24.0904 6.91122 24.2867 7.10071 24.529 7.10071C24.7712 7.10071 24.9675 6.91122 24.9675 6.67739V6.16714C24.9675 4.46032 23.5295 3.04788 21.7619 3.01865C21.7432 3.01837 21.7248 3.0182 21.7062 3.0182C20.8598 3.0182 20.0578 3.33776 19.4425 3.92152C18.8073 4.52431 18.4429 5.36043 18.4429 6.21548V16.7124C18.2933 16.8936 17.9186 17.2936 17.3344 17.5768Z" fill="white" stroke="white" stroke-width="0.25"/>
<path d="M13.0798 23.0595C11.4605 23.0595 10.5788 21.8412 10.543 21.7907C10.382 21.5455 9.97858 21.5453 9.81611 21.7893C9.7794 21.8412 8.89767 23.0596 7.27848 23.0596C5.65928 23.0596 4.77755 21.8412 4.74172 21.7907C4.60656 21.5967 4.33409 21.5452 4.1331 21.6757C3.93212 21.8061 3.87872 22.0691 4.01388 22.2631C4.06056 22.3302 5.18238 23.9062 7.27842 23.9062C8.7114 23.9062 9.68901 23.1696 10.179 22.6821C10.6691 23.1696 11.6467 23.9062 13.0797 23.9062C13.322 23.9062 13.5183 23.7167 13.5183 23.4829C13.5183 23.249 13.322 23.0595 13.0798 23.0595Z" fill="white" stroke="white" stroke-width="0.25"/>
<path d="M27.8249 21.6769C27.6249 21.5462 27.3526 21.5971 27.2164 21.7896C27.1798 21.8414 26.3002 23.0595 24.6812 23.0595C23.0619 23.0595 22.1803 21.8411 22.1444 21.7906C21.9833 21.5441 21.5778 21.5442 21.4166 21.7906C21.4077 21.8033 20.5139 23.0595 18.8798 23.0595C17.2606 23.0595 16.3789 21.8411 16.3431 21.7906C16.182 21.5453 15.7782 21.5451 15.6159 21.7896C15.6124 21.7945 15.2586 22.2887 14.6057 22.6565C14.3966 22.7744 14.3259 23.0336 14.4481 23.2355C14.5702 23.4373 14.8387 23.5054 15.0479 23.3877C15.4508 23.1607 15.7623 22.8968 15.9789 22.6817C16.4688 23.1691 17.4465 23.9061 18.8798 23.9061C20.3128 23.9061 21.2904 23.1695 21.7805 22.682C22.2705 23.1695 23.2482 23.9061 24.6811 23.9061C26.7774 23.9061 27.8971 22.3298 27.9438 22.2627C28.0784 22.0689 28.025 21.8075 27.8249 21.6769Z" fill="white" stroke="white" stroke-width="0.25"/>
</svg>
