<svg width="37" height="39" viewBox="0 0 37 39" fill="none" xmlns="http://www.w3.org/2000/svg">
<line x1="12.9836" y1="37.8552" x2="23.7677" y2="37.8552" stroke="white" stroke-width="2" stroke-linecap="round"/>
<path d="M25.8601 27.8033V30.2175H10.8914V15.8598H25.3304C25.623 15.8598 25.8601 16.0872 25.8601 16.3679V25.5541" stroke="white" stroke-width="1.5" stroke-miterlimit="10" stroke-linecap="round" stroke-linejoin="round"/>
<path d="M28.3232 15.8595H26.5361V19.6722C26.5361 19.898 26.785 20.044 26.9945 19.941L28.1795 19.3583C28.2697 19.314 28.3766 19.314 28.4668 19.3583L29.6518 19.941C29.8613 20.044 30.1102 19.898 30.1102 19.6722V15.8595H28.3232Z" stroke="white" stroke-width="1.5" stroke-miterlimit="10" stroke-linecap="round" stroke-linejoin="round"/>
<path d="M30.8445 27.8037H25.8016C25.6342 27.8037 25.4983 27.6735 25.4983 27.5128V25.4372C25.4983 25.2765 25.6342 25.1462 25.8016 25.1462H30.8445C31.012 25.1462 31.1478 25.2765 31.1478 25.4372V27.5128C31.1478 27.6735 31.012 27.8037 30.8445 27.8037Z" stroke="white" stroke-width="1.5" stroke-miterlimit="10" stroke-linecap="round" stroke-linejoin="round"/>
<path d="M10.8914 6.74148V15.8596H25.8602V2.00944C25.8602 1.72907 25.6231 1.50178 25.3308 1.50178H11.4211C11.1285 1.50178 10.8914 1.72927 10.8914 2.00991V4.49224" stroke="white" stroke-width="1.5" stroke-miterlimit="10" stroke-linecap="round" stroke-linejoin="round"/>
<path d="M20.8969 13.4453H15.8541C15.6866 13.4453 15.5508 13.3151 15.5508 13.1543V11.0788C15.5508 10.9181 15.6866 10.7878 15.8541 10.7878H20.8969C21.0645 10.7878 21.2002 10.9181 21.2002 11.0788V13.1543C21.2002 13.3151 21.0645 13.4453 20.8969 13.4453Z" stroke="white" stroke-width="1.5" stroke-miterlimit="10" stroke-linecap="round" stroke-linejoin="round"/>
<path d="M25.8602 30.2175H10.8914V16.3679C10.8914 16.0872 11.1286 15.8598 11.4211 15.8598H25.8602V30.2175Z" stroke="white" stroke-width="1.5" stroke-miterlimit="10" stroke-linecap="round" stroke-linejoin="round"/>
<path d="M18.3757 15.8595H16.5886V19.6722C16.5886 19.898 16.8376 20.044 17.0471 19.941L18.2321 19.3583C18.3222 19.314 18.4291 19.314 18.5192 19.3583L19.7043 19.941C19.9138 20.044 20.1627 19.898 20.1627 19.6722V15.8595H18.3757Z" stroke="white" stroke-width="1.5" stroke-miterlimit="10" stroke-linecap="round" stroke-linejoin="round"/>
<path d="M20.8969 27.8037H15.8541C15.6866 27.8037 15.5508 27.6735 15.5508 27.5128V25.4372C15.5508 25.2765 15.6866 25.1462 15.8541 25.1462H20.8969C21.0644 25.1462 21.2002 25.2765 21.2002 25.4372V27.5128C21.2002 27.6735 21.0644 27.8037 20.8969 27.8037Z" stroke="white" stroke-width="1.5" stroke-miterlimit="10" stroke-linecap="round" stroke-linejoin="round"/>
<path d="M35.2399 32.1426H1.51136C1.37102 32.1426 1.25732 32.0335 1.25732 31.8989V30.4614C1.25732 30.3269 1.37102 30.2177 1.51136 30.2177H35.2399C35.3801 30.2177 35.4938 30.3269 35.4938 30.4614V31.8989C35.4938 32.0335 35.3801 32.1426 35.2399 32.1426Z" stroke="white" stroke-width="1.5" stroke-miterlimit="10" stroke-linecap="round" stroke-linejoin="round"/>
<path d="M35.5709 34.3542H34.0693C33.8472 34.3542 33.6672 34.1815 33.6672 33.9686V32.1426H35.973V33.9686C35.973 34.1815 35.793 34.3542 35.5709 34.3542Z" stroke="white" stroke-width="1.5" stroke-miterlimit="10" stroke-linecap="round" stroke-linejoin="round"/>
<path d="M19.1264 34.3542H17.6247C17.4026 34.3542 17.2227 34.1815 17.2227 33.9686V32.1426H19.5284V33.9686C19.5284 34.1815 19.3484 34.3542 19.1264 34.3542Z" stroke="white" stroke-width="1.5" stroke-miterlimit="10" stroke-linecap="round" stroke-linejoin="round"/>
</svg>
