<svg width="37" height="38" viewBox="0 0 37 38" fill="none" xmlns="http://www.w3.org/2000/svg">
<line x1="13.25" y1="36.75" x2="23.534" y2="36.75" stroke="white" stroke-width="2.5" stroke-linecap="round"/>
<path d="M8.19361 18.2541C8.16327 17.9763 7.90434 17.7746 7.61478 17.804C7.3255 17.8332 7.11558 18.0819 7.14599 18.3597C7.74597 23.8466 12.7396 28.1497 18.4838 28.1497C24.6929 28.1497 29.8841 23.1636 29.8841 17.2053C29.8841 11.2465 24.7007 6.26099 18.4838 6.26099C12.7406 6.26099 7.74611 10.5628 7.14599 16.0509C7.11558 16.3287 7.3255 16.5774 7.61478 16.6066C7.90448 16.6365 8.16327 16.4344 8.19361 16.1566C8.33857 14.8308 8.74878 13.5903 9.3706 12.4813H27.5838C29.2232 15.3801 29.2236 19.0299 27.5838 21.9294H9.3706C8.74871 20.8204 8.33857 19.5799 8.19361 18.2541ZM17.9571 7.3321V11.47H14.4876C15.3138 9.15704 16.5866 7.64399 17.9571 7.3321ZM19.0104 7.3321C20.381 7.64399 21.6537 9.15704 22.4799 11.47H19.0104V7.3321ZM15.4824 7.69374C14.6307 8.58532 13.907 9.86793 13.3783 11.47H10.0225C11.3391 9.67834 13.2554 8.33647 15.4824 7.69374ZM23.5891 11.47C23.0617 9.87163 22.3402 8.59132 21.491 7.69995C23.7095 8.34806 25.6144 9.69385 26.9273 11.47H23.5891ZM19.0104 27.0785V22.9406H22.4799C21.6537 25.2535 20.381 26.7666 19.0104 27.0785ZM17.9571 27.0785C16.5866 26.7666 15.3139 25.2535 14.4876 22.9406H17.9571V27.0785ZM21.491 26.7106C22.3402 25.8192 23.0617 24.5389 23.5891 22.9405H26.9273C25.6144 24.7167 23.7095 26.0625 21.491 26.7106ZM13.3784 22.9406C13.907 24.5427 14.6307 25.8253 15.4825 26.7168C13.2554 26.0741 11.3391 24.7322 10.0225 22.9406H13.3784Z" fill="white" stroke="white" stroke-width="0.25"/>
<path d="M35.9865 15.897L33.9817 13.1615C33.7715 12.8744 33.6635 12.5381 33.6694 12.1884L33.7221 8.84322C33.7403 7.68763 32.9872 6.66048 31.8483 6.28744L28.5511 5.20527C28.2061 5.09214 27.9128 4.88084 27.7027 4.5939L25.6979 1.85891C25.0056 0.914075 23.7675 0.507461 22.6168 0.847665L19.706 1.70917C19.428 1.79149 19.2722 2.07445 19.3579 2.3413C19.4436 2.60809 19.7384 2.75756 20.0164 2.67551L22.927 1.81407C23.6402 1.60338 24.4073 1.8552 24.8364 2.44088L26.8412 5.1758C27.18 5.63845 27.6536 5.97959 28.2106 6.1623L31.5079 7.24454C32.2137 7.47566 32.6803 8.11198 32.669 8.82798L32.6163 12.1726C32.6068 12.7368 32.7809 13.2798 33.1202 13.7432L35.1251 16.4788C35.554 17.0645 35.5417 17.8428 35.0944 18.4155L33.0041 21.0915C32.6507 21.5431 32.4593 22.0808 32.4506 22.6462L32.3972 25.9915C32.3859 26.7074 31.8997 27.3299 31.1872 27.5405L27.857 28.5261C27.2934 28.693 26.8094 29.0203 26.4575 29.4717L24.367 32.1473C23.919 32.7203 23.1438 32.9498 22.4382 32.718L19.1412 31.636C18.5849 31.4536 17.9934 31.4448 17.4301 31.611L14.1002 32.5965C13.3871 32.8074 12.6199 32.5555 12.1908 31.9697L10.186 29.2348C9.84721 28.7722 9.37365 28.431 8.81666 28.2483L5.51929 27.1661C4.81355 26.935 4.34694 26.2986 4.35825 25.5826L4.41092 22.238C4.42047 21.6738 4.2463 21.1308 3.90702 20.6674L1.90217 17.9318C1.47321 17.3461 1.4855 16.5678 1.93279 15.9951L4.02297 13.3191C4.37637 12.8676 4.56782 12.3299 4.57652 11.7645L4.6299 8.41921C4.64121 7.70327 5.12741 7.08078 5.83989 6.87022L9.17012 5.8846C9.73365 5.71766 10.2177 5.3904 10.5696 4.93896L12.6601 2.26343C13.1081 1.69042 13.8833 1.46092 14.5889 1.69265L17.3958 2.61355C17.671 2.70403 17.9705 2.56278 18.0645 2.29863C18.1586 2.03434 18.0117 1.74692 17.7364 1.65665L14.9297 0.735747C13.7911 0.362169 12.5405 0.731971 11.8175 1.65644L9.72655 4.33264C9.50863 4.6123 9.20882 4.81483 8.85971 4.91826L5.52983 5.90381C4.37988 6.24368 3.59499 7.24832 3.57666 8.40371L3.52329 11.7492C3.51788 12.0995 3.3994 12.4323 3.18049 12.712L1.08996 15.3885C0.368209 16.3126 0.348263 17.5685 1.04052 18.5135L3.0453 21.249C3.2555 21.5362 3.36351 21.8725 3.35761 22.2222L3.30494 25.5673C3.28668 26.7229 4.03983 27.7501 5.17875 28.1231L8.4759 29.2053C8.82094 29.3184 9.11422 29.5297 9.32428 29.8167L11.3291 32.5516C12.0215 33.4967 13.2594 33.9034 14.4102 33.563L17.7398 32.5775C18.0888 32.4745 18.4556 32.4798 18.8003 32.5929L22.0973 33.6748C23.1715 34.0273 24.5265 33.6275 25.2095 32.7541L27.3005 30.0779C27.5184 29.7982 27.8182 29.5957 28.1673 29.4923L31.4972 28.5067C32.6471 28.1669 33.432 27.1622 33.4504 26.0068L33.5037 22.6614C33.5091 22.311 33.6276 21.9783 33.8465 21.6986L35.9371 19.0221C36.6588 18.098 36.6788 16.8421 35.9865 15.897Z" fill="white" stroke="white" stroke-width="0.25"/>
<path d="M31.5814 16.6073C31.8711 16.5831 32.0855 16.3378 32.0602 16.0597C31.7656 12.823 30.2247 9.82077 27.721 7.606C25.2024 5.37781 21.9324 4.15076 18.5137 4.15076C11.0155 4.15076 4.91528 10.0069 4.91528 17.2052C4.91528 24.4034 11.0155 30.2596 18.5137 30.2596C25.4578 30.2596 31.4553 24.9989 32.0603 18.3508C32.0855 18.0726 31.8712 17.8274 31.5814 17.8031C31.2912 17.7786 31.0362 17.9847 31.0109 18.2629C30.4503 24.4229 24.9609 29.2484 18.5137 29.2484C11.5963 29.2484 5.96866 23.8458 5.96866 17.2052C5.96866 10.5646 11.5963 5.162 18.5137 5.162C24.9609 5.162 30.4503 9.98743 31.0108 16.1476C31.0362 16.4258 31.2912 16.6321 31.5814 16.6073Z" fill="white" stroke="white" stroke-width="0.25"/>
<path d="M12.2677 19.8231V14.5879C12.2677 14.3086 12.0318 14.0823 11.741 14.0823C11.4501 14.0823 11.2144 14.3086 11.2144 14.5879V19.8231C11.2144 20.1024 11.4502 20.3287 11.741 20.3287C12.0318 20.3287 12.2677 20.1024 12.2677 19.8231Z" fill="white" stroke="white" stroke-width="0.25"/>
<path d="M16.0037 19.3176C15.4187 19.3176 14.8542 19.0895 14.4936 18.7077C14.2983 18.5008 13.9652 18.485 13.7497 18.6725C13.5342 18.86 13.5177 19.1798 13.7131 19.3867C14.27 19.9767 15.1263 20.3289 16.0037 20.3289C17.0605 20.3289 17.9814 19.662 18.1459 18.7776C18.2706 18.1069 17.9456 17.228 16.6595 16.7726C15.9645 16.5265 15.3193 16.2579 15.1489 16.1861C14.9894 16.0719 14.9121 15.8909 14.9413 15.6952C14.9789 15.444 15.1817 15.2418 15.4838 15.1544C16.3348 14.9083 17.1077 15.4995 17.1275 15.5148C17.3501 15.6927 17.6809 15.6646 17.8675 15.4516C18.0547 15.2378 18.0259 14.9188 17.8033 14.7391C17.7545 14.6997 16.5908 13.7779 15.18 14.1861C14.4856 14.3869 13.9946 14.9101 13.8987 15.5515C13.8093 16.1497 14.0792 16.725 14.6032 17.0529C14.6264 17.0675 14.6509 17.0802 14.6762 17.0911C14.7076 17.1045 15.454 17.4234 16.295 17.7212C16.8778 17.9276 17.1744 18.2478 17.109 18.5997C17.0433 18.9527 16.612 19.3176 16.0037 19.3176Z" fill="white" stroke="white" stroke-width="0.25"/>
<path d="M25.8126 17.2055C25.8126 15.4833 24.3531 14.0823 22.5592 14.0823C20.7654 14.0823 19.3059 15.4833 19.3059 17.2055C19.3059 18.9277 20.7654 20.3288 22.5592 20.3288C24.3531 20.3288 25.8126 18.9277 25.8126 17.2055ZM20.3592 17.2055C20.3592 16.041 21.3462 15.0935 22.5592 15.0935C23.7722 15.0935 24.7592 16.041 24.7592 17.2055C24.7592 18.3701 23.7722 19.3176 22.5592 19.3176C21.3461 19.3176 20.3592 18.3702 20.3592 17.2055Z" fill="white" stroke="white" stroke-width="0.25"/>
</svg>
