<svg width="42" height="41" viewBox="0 0 42 41" fill="none" xmlns="http://www.w3.org/2000/svg">
<path d="M33.8314 17.8322C33.8618 17.7109 33.8496 17.565 33.7549 17.3839L33.8314 17.8322ZM33.8314 17.8322C33.8004 17.9565 33.7206 18.0713 33.6026 18.1801C33.4008 18.3662 33.1172 18.5098 32.8597 18.6401C32.8418 18.6491 32.824 18.6582 32.8063 18.6671L28.5591 13.142C27.9192 12.3096 26.7213 12.1527 25.8886 12.7928L10.2148 24.8414L7.91461 20.4536L9.13099 19.8219L9.131 19.8219L29.4919 9.25142L33.7548 17.3839L33.8314 17.8322ZM5.31302 18.2188L5.31302 18.2188L9.19514 25.6252L7.63168 26.827C6.799 27.4671 6.64254 28.6651 7.28246 29.4976L14.9017 39.4093C15.5416 40.2418 16.7395 40.3986 17.5722 39.7585L35.8291 25.7243C36.6618 25.0842 36.8183 23.8862 36.1783 23.0538L33.5904 19.6871C34.1353 19.4057 34.7014 19.1018 34.9617 18.443L34.9617 18.443C35.1708 17.9137 35.1417 17.3015 34.8768 16.7959L34.8768 16.7959L29.1367 5.84501C28.633 4.88418 27.446 4.50476 26.4891 5.00203L6.13562 15.5685C5.17965 16.0631 4.81801 17.2742 5.31302 18.2188ZM6.7191 16.6927L6.71911 16.6927L27.0728 6.12611C27.4093 5.95142 27.8329 6.08634 28.0146 6.43284L28.904 8.12934L7.32661 19.3316L6.43516 17.6306C6.43516 17.6306 6.43516 17.6306 6.43515 17.6306C6.25982 17.2959 6.38548 16.8659 6.7191 16.6927ZM35.174 23.8258C35.3882 24.1044 35.3357 24.5058 35.0571 24.7199L16.8002 38.7542C16.5216 38.9683 16.1202 38.9159 15.9061 38.6372L8.28683 28.7255C8.07265 28.4469 8.12514 28.0456 8.40375 27.8314L26.6606 13.7972C26.9393 13.583 27.3406 13.6355 27.5548 13.9141L35.174 23.8258Z" fill="white" stroke="white" stroke-width="0.25"/>
<path d="M21.4813 32.9069L23.799 31.1253C24.0765 30.912 24.1282 30.5143 23.9151 30.2371C23.702 29.9598 23.3042 29.9078 23.0269 30.1209L20.7092 31.9026C20.432 32.1157 20.38 32.5136 20.5931 32.7908C20.8062 33.068 21.2041 33.12 21.4813 32.9069Z" fill="white" stroke="white" stroke-width="0.25"/>
<path d="M17.0777 36.2915L19.3954 34.5098C19.6727 34.2967 19.7247 33.8988 19.5116 33.6216C19.2985 33.3444 18.9006 33.2923 18.6234 33.5054L16.3057 35.2871C16.0284 35.5002 15.9764 35.8981 16.1895 36.1753C16.4026 36.4525 16.8005 36.5046 17.0777 36.2915Z" fill="white" stroke="white" stroke-width="0.25"/>
<path d="M25.8846 29.5222L28.2023 27.7405C28.4798 27.5272 28.5316 27.1295 28.3185 26.8523C28.1054 26.5751 27.7075 26.523 27.4303 26.7362L25.1125 28.5178C24.8353 28.7309 24.7833 29.1288 24.9964 29.406C25.2095 29.6833 25.6074 29.7353 25.8846 29.5222Z" fill="white" stroke="white" stroke-width="0.25"/>
<path d="M15.9102 33.8625L18.8297 31.6183C19.4399 31.1492 19.5548 30.2708 19.0857 29.6606L18.1958 28.503C17.7266 27.8926 16.8486 27.7778 16.2382 28.247L13.3187 30.4913C12.7083 30.9605 12.5935 31.8385 13.0627 32.4489L13.9526 33.6065C14.4218 34.2169 15.2999 34.3317 15.9102 33.8625ZM14.0669 31.6766C14.0235 31.6202 14.0343 31.5388 14.0906 31.4954L17.0101 29.2512C17.0665 29.2078 17.1479 29.2184 17.1913 29.2749L18.0812 30.4325C18.1246 30.489 18.1139 30.5704 18.0575 30.6137L15.138 32.8579C15.0816 32.9013 15.0002 32.8907 14.9568 32.8342L14.0669 31.6766Z" fill="white" stroke="white" stroke-width="0.25"/>
</svg>
