<svg width="35" height="39" viewBox="0 0 35 39" fill="none" xmlns="http://www.w3.org/2000/svg">
<path d="M29.7863 6.65744C23.5774 6.3286 20.2751 3.08576 18.8622 1.18292C18.7093 0.97695 18.5097 0.809502 18.2795 0.694094C18.0493 0.578687 17.795 0.518555 17.537 0.518555C17.279 0.518555 17.0246 0.578687 16.7944 0.694094C16.5642 0.809502 16.3646 0.97695 16.2118 1.18292C14.7973 3.08795 11.496 6.33463 5.29048 6.65963C4.86528 6.67868 4.46389 6.85957 4.1699 7.16462C3.87591 7.46968 3.71199 7.87537 3.71228 8.29722V14.2825L2.02902 14.522C1.79525 14.5537 1.57529 14.6503 1.39456 14.8006C1.21382 14.9509 1.07969 15.1488 1.00767 15.3715C0.935492 15.5914 0.927567 15.827 0.984812 16.0511C1.04206 16.2752 1.16213 16.4787 1.33116 16.6381L2.99009 18.217L2.59803 20.4399C2.55761 20.6679 2.58287 20.9025 2.6709 21.1168C2.75893 21.3311 2.90617 21.5165 3.09571 21.6517C3.3108 21.8081 3.57048 21.8927 3.83726 21.8934C4.03985 21.8933 4.23936 21.8442 4.41844 21.7503L4.48756 21.7153C5.3854 24.6348 7.06112 27.2602 9.33819 29.3151C11.6152 31.3699 14.4093 32.778 17.4261 33.391C17.5005 33.4064 17.5773 33.4064 17.6517 33.391C20.668 32.7774 23.4614 31.369 25.7379 29.3141C28.0143 27.2592 29.6895 24.6339 30.587 21.7147L30.6517 21.7476C30.8588 21.8556 31.0923 21.9041 31.3258 21.8876C31.5593 21.8712 31.7835 21.7905 31.9732 21.6545C32.1629 21.5186 32.3105 21.3329 32.3994 21.1183C32.4883 20.9037 32.515 20.6688 32.4765 20.4399L32.0844 18.217L33.7434 16.6381C33.9124 16.4787 34.0325 16.2752 34.0897 16.0511C34.147 15.827 34.139 15.5914 34.0669 15.3715C33.9949 15.1489 33.8608 14.951 33.6802 14.8007C33.4996 14.6504 33.2797 14.5538 33.0461 14.522L31.3611 14.2825V8.29722C31.3622 7.8755 31.199 7.46964 30.9057 7.16417C30.6123 6.85871 30.2113 6.6772 29.7863 6.65744ZM5.34467 7.75355C12.0069 7.40279 15.572 3.8925 17.1043 1.83017C17.1561 1.76556 17.2219 1.71338 17.2969 1.67751C17.3718 1.64164 17.454 1.62302 17.5373 1.62302C17.6205 1.62302 17.7027 1.64164 17.7777 1.67751C17.8526 1.71338 17.9185 1.76556 17.9702 1.83017C19.5014 3.8925 23.0665 7.40279 29.7315 7.75355C29.8726 7.75976 30.0058 7.81972 30.1034 7.92091C30.2009 8.0221 30.2553 8.15671 30.2552 8.29667V13.21L29.7265 12.1648C29.6005 11.924 29.3975 11.7313 29.1492 11.6168V9.82575C29.1486 9.558 29.0491 9.29975 28.8694 9.09973C28.6898 8.89972 28.4426 8.77178 28.1743 8.74005C24.4281 8.32529 20.9452 6.62841 18.3258 3.94182C18.1147 3.73587 17.8302 3.62075 17.534 3.62147C17.2378 3.62219 16.9538 3.73868 16.7437 3.94566C14.1266 6.62947 10.6472 8.32491 6.90462 8.74005C6.63537 8.77053 6.38678 8.89794 6.20605 9.09807C6.02531 9.29821 5.92502 9.55716 5.92419 9.82575V11.6168C5.67584 11.7313 5.47267 11.924 5.34633 12.1648L4.81824 13.2105V8.29722C4.81813 8.15666 4.87295 8.02151 4.97121 7.92015C5.06946 7.81878 5.20296 7.75907 5.34467 7.75355ZM25.7871 14.2908C25.7755 14.2398 25.765 14.1888 25.749 14.1384C25.6547 13.8465 25.4796 13.5867 25.2436 13.3886C25.0075 13.1906 24.7201 13.0622 24.4141 13.0182L20.6887 12.4778L19.0187 9.10889C18.883 8.83401 18.6722 8.6024 18.4103 8.4404C18.1483 8.27839 17.8458 8.19251 17.537 8.19251C17.2282 8.19251 16.9257 8.27839 16.6637 8.4404C16.4018 8.6024 16.191 8.83401 16.0553 9.10889L14.3847 12.4778L10.6593 13.0182C10.3534 13.0623 10.0661 13.1907 9.83019 13.3888C9.59429 13.5868 9.41924 13.8466 9.325 14.1384C9.30897 14.1888 9.29846 14.2398 9.28685 14.2908L8.63378 14.1965L7.6058 12.1654C7.48058 11.925 7.27881 11.7324 7.03181 11.6173L7.03955 9.82684C11.0328 9.38617 14.7442 7.57309 17.529 4.70253C20.3247 7.57187 24.0434 9.38386 28.0433 9.82575V11.6173C27.7955 11.732 27.5929 11.9247 27.4671 12.1654L26.4402 14.1932L25.7871 14.2908ZM25.2148 21.6517C25.4303 21.8081 25.6904 21.8925 25.9575 21.8928C26.1602 21.8928 26.3599 21.8437 26.5392 21.7498L27.2133 21.4051C26.4682 23.4683 25.2411 25.3275 23.6322 26.8308C22.0234 28.3341 20.0785 29.4387 17.9564 30.0545C17.6815 30.1346 17.3892 30.1346 17.1142 30.0545C14.9924 29.4386 13.0478 28.3338 11.4393 26.8304C9.83085 25.3271 8.60418 23.4677 7.85961 21.4045L8.52982 21.7476C8.73697 21.8558 8.97051 21.9045 9.20409 21.8881C9.43767 21.8718 9.66199 21.7911 9.85174 21.6551C10.0415 21.5191 10.1891 21.3333 10.278 21.1186C10.3669 20.9039 10.3934 20.6688 10.3546 20.4399L9.96259 18.2176L11.0912 17.1417L12.4388 18.4505L11.8001 22.1592C11.7592 22.3952 11.7707 22.6372 11.8338 22.8684C11.8969 23.0995 12.0101 23.3143 12.1655 23.4977C12.3209 23.681 12.5147 23.8286 12.7335 23.9302C12.9524 24.0317 13.1909 24.0847 13.4325 24.0856C13.7009 24.0854 13.965 24.0197 14.2017 23.8943L17.5367 22.146L20.8712 23.8932C21.1424 24.0373 21.4492 24.1024 21.7562 24.0812C22.0632 24.0599 22.358 23.9532 22.6064 23.7732C22.8589 23.5931 23.055 23.3462 23.1724 23.0608C23.2897 22.7753 23.3236 22.4628 23.27 22.1592L22.6313 18.4505L23.9789 17.1417L25.1075 18.2176L24.7155 20.4399C24.6752 20.668 24.7007 20.9027 24.7891 21.1171C24.8774 21.3314 25.025 21.5167 25.2148 21.6517ZM24.5595 15.0471L21.6536 17.8685C21.5899 17.9304 21.5424 18.0068 21.5149 18.091C21.4875 18.1751 21.481 18.2646 21.496 18.3518L22.1817 22.3433C22.2007 22.4451 22.19 22.5501 22.1508 22.646C22.1116 22.742 22.0456 22.8248 21.9605 22.8848C21.8794 22.9444 21.7827 22.9799 21.682 22.9871C21.5812 22.9943 21.4805 22.9728 21.3915 22.9254L17.7972 21.0417C17.7174 21.0001 17.6285 20.9784 17.5384 20.9784C17.4482 20.9784 17.3594 21.0001 17.2796 21.0417L13.6852 22.9259C13.5959 22.9743 13.4945 22.9962 13.393 22.9889C13.2914 22.9816 13.1942 22.9455 13.1129 22.8848C13.0278 22.8248 12.9618 22.742 12.9226 22.646C12.8834 22.5501 12.8727 22.4451 12.8917 22.3433L13.5796 18.3518C13.5947 18.2646 13.5882 18.1751 13.5607 18.091C13.5333 18.0068 13.4857 17.9304 13.422 17.8685L10.5139 15.0471C10.4386 14.9749 10.3855 14.883 10.3608 14.7821C10.3362 14.6812 10.3409 14.5754 10.3746 14.4771C10.405 14.3795 10.4627 14.2925 10.541 14.2262C10.6193 14.1598 10.715 14.1168 10.8169 14.1022L14.8288 13.5207C14.9176 13.5079 15.0019 13.4739 15.0744 13.4215C15.147 13.3692 15.2056 13.3002 15.2452 13.2204L17.0457 9.59063C17.0902 9.49973 17.1596 9.42307 17.246 9.36944C17.3324 9.31581 17.4323 9.28737 17.5342 9.28737C17.6362 9.28737 17.7361 9.31581 17.8225 9.36944C17.9089 9.42307 17.9783 9.49973 18.0228 9.59063L19.8227 13.2193C19.8623 13.2991 19.9209 13.3681 19.9935 13.4204C20.066 13.4728 20.1503 13.5068 20.2391 13.5196L24.2504 14.1011C24.3524 14.1157 24.4481 14.1587 24.5264 14.2251C24.6047 14.2914 24.6624 14.3784 24.6928 14.476C24.7274 14.5739 24.7333 14.6796 24.7097 14.7807C24.6861 14.8818 24.634 14.9741 24.5595 15.0471ZM3.74491 20.7649C3.72254 20.7504 3.70503 20.7296 3.69459 20.7052C3.68416 20.6809 3.68127 20.6539 3.68629 20.6279L4.12867 18.1184C4.14417 18.03 4.13756 17.9392 4.1094 17.854C4.08125 17.7688 4.03242 17.6917 3.96721 17.6295L2.09814 15.8483C2.0782 15.8314 2.06392 15.8089 2.0572 15.7837C2.05048 15.7585 2.05165 15.732 2.06054 15.7075C2.06908 15.6803 2.08558 15.6563 2.10793 15.6384C2.13027 15.6206 2.15747 15.6097 2.18607 15.6072L4.76294 15.24C4.8512 15.2273 4.93506 15.1937 5.00737 15.142C5.07968 15.0903 5.1383 15.022 5.17823 14.9429L6.33395 12.6586C6.3487 12.6344 6.36954 12.6143 6.39444 12.6003C6.41935 12.5864 6.44746 12.579 6.47606 12.579C6.50467 12.579 6.53278 12.5864 6.55768 12.6003C6.58258 12.6143 6.60342 12.6344 6.61818 12.6586L7.77445 14.944C7.81417 15.0231 7.87266 15.0913 7.94491 15.143C8.01716 15.1946 8.10099 15.2281 8.18919 15.2405L9.4356 15.4203C9.51587 15.5717 9.61899 15.7102 9.74139 15.8308L10.3027 16.3756L8.98492 17.6306C8.9197 17.6928 8.87088 17.7699 8.84272 17.8551C8.81457 17.9403 8.80795 18.0311 8.82345 18.1195L9.26583 20.629C9.27086 20.655 9.26797 20.6819 9.25753 20.7063C9.2471 20.7307 9.22959 20.7515 9.20722 20.766C9.18378 20.7839 9.15549 20.7946 9.12595 20.7965C9.09642 20.7985 9.06696 20.7917 9.04133 20.777L6.73043 19.5915C6.65197 19.5514 6.56493 19.5304 6.47662 19.5304C6.3883 19.5304 6.30127 19.5514 6.2228 19.5915L3.90693 20.7781C3.88155 20.7917 3.85272 20.7977 3.82395 20.7954C3.79518 20.793 3.76772 20.7825 3.74491 20.7649ZM17.5367 32.2944C14.7043 31.6976 12.0881 30.3512 9.96626 28.3982C7.84445 26.4453 6.2964 23.9588 5.48679 21.2034L6.4733 20.6981C7.15804 23.1619 8.46673 25.4114 10.2752 27.2331C12.0836 29.0547 14.3317 30.3882 16.8062 31.1067C17.2824 31.2445 17.7883 31.2445 18.2644 31.1067C20.7394 30.3885 22.9881 29.0553 24.797 27.2336C26.606 25.4119 27.9151 23.1622 28.6001 20.6981L29.5866 21.2034C28.777 23.9588 27.229 26.4453 25.1072 28.3982C22.9854 30.3512 20.3691 31.6976 17.5367 32.2944ZM33.0129 15.7075C33.0218 15.732 33.0229 15.7585 33.0162 15.7837C33.0095 15.8089 32.9952 15.8314 32.9753 15.8483L31.1057 17.6295C31.0405 17.6917 30.9916 17.7688 30.9635 17.854C30.9353 17.9392 30.9287 18.03 30.9442 18.1184L31.3866 20.6279C31.3916 20.6539 31.3887 20.6809 31.3783 20.7052C31.3678 20.7296 31.3503 20.7504 31.328 20.7649C31.3044 20.7825 31.2761 20.7929 31.2467 20.7949C31.2172 20.7968 31.1878 20.7902 31.1621 20.7759L28.8506 19.5915C28.7722 19.5514 28.6851 19.5304 28.5968 19.5304C28.5085 19.5304 28.4215 19.5514 28.343 19.5915L26.0277 20.777C26.0023 20.7907 25.9735 20.7967 25.9447 20.7944C25.9159 20.7921 25.8884 20.7814 25.8657 20.7638C25.8433 20.7493 25.8258 20.7285 25.8153 20.7042C25.8049 20.6798 25.802 20.6528 25.807 20.6268L26.2494 18.1173C26.2649 18.0289 26.2583 17.9381 26.2302 17.8529C26.202 17.7677 26.1532 17.6906 26.088 17.6284L24.7702 16.3734L25.3315 15.8286C25.4539 15.708 25.557 15.5695 25.6373 15.4181L26.8837 15.2383C26.9719 15.2259 27.0557 15.1925 27.128 15.1408C27.2002 15.0892 27.2587 15.0209 27.2984 14.9418L28.4541 12.6575C28.4689 12.6333 28.4897 12.6132 28.5146 12.5992C28.5395 12.5853 28.5677 12.5779 28.5963 12.5779C28.6249 12.5779 28.653 12.5853 28.6779 12.5992C28.7028 12.6132 28.7236 12.6333 28.7384 12.6575L29.8941 14.9429C29.934 15.022 29.9926 15.0903 30.065 15.142C30.1373 15.1937 30.2211 15.2273 30.3094 15.24L32.8874 15.6072C32.916 15.6096 32.9432 15.6205 32.9656 15.6383C32.9879 15.6562 33.0044 15.6803 33.0129 15.7075Z" fill="white" stroke="white" stroke-width="0.25"/>
<line x1="12.1287" y1="37.998" x2="23.2462" y2="37.998" stroke="white" stroke-width="2" stroke-linecap="round"/>
</svg>
