<svg width="20" height="18" viewBox="0 0 20 18" fill="none" xmlns="http://www.w3.org/2000/svg">
<path d="M9.40579 10.0328V5.03278C9.40579 4.57444 9.76204 4.19944 10.1975 4.19944C10.6329 4.19944 10.9891 4.57444 10.9891 5.03278V10.0328C10.9891 10.4911 10.6329 10.8661 10.1975 10.8661C9.76204 10.8661 9.40579 10.4911 9.40579 10.0328ZM10.1975 11.6994C9.54037 11.6994 9.00996 12.2578 9.00996 12.9494C9.00996 13.6411 9.54037 14.1994 10.1975 14.1994C10.8545 14.1994 11.385 13.6411 11.385 12.9494C11.385 12.2578 10.8545 11.6994 10.1975 11.6994ZM19.365 15.7661C18.8108 16.8911 17.647 17.5328 16.1904 17.5328H4.21245C2.74787 17.5328 1.59204 16.8911 1.03787 15.7661C0.475788 14.6328 0.634121 13.1828 1.4337 11.9661L7.79871 1.36611C8.36079 0.516109 9.24746 0.0327759 10.1975 0.0327759C11.1475 0.0327759 12.0341 0.516109 12.5725 1.34111L18.9691 11.9828C19.7687 13.1994 19.9191 14.6411 19.357 15.7661H19.365ZM17.6629 12.9161C17.6629 12.9161 17.647 12.8994 17.647 12.8828L11.2583 2.25778C11.0287 1.91611 10.6329 1.69944 10.1975 1.69944C9.76204 1.69944 9.36621 1.91611 9.12079 2.29111L2.74787 12.8828C2.25704 13.6161 2.1462 14.4161 2.4312 14.9911C2.70829 15.5578 3.34162 15.8661 4.20454 15.8661H16.1745C17.0375 15.8661 17.6708 15.5578 17.9479 14.9911C18.2329 14.4161 18.122 13.6161 17.655 12.9161H17.6629Z" fill="#D21A0E"/>
</svg>
