<svg width="30" height="30" viewBox="0 0 30 30" fill="none" xmlns="http://www.w3.org/2000/svg">
<g clip-path="url(#clip0_980_9668)">
<path d="M27.8387 13.7119L15.1693 21.3147L2.49996 13.7119C2.22515 13.547 1.89611 13.498 1.5852 13.5758C1.2743 13.6535 1.007 13.8515 0.842123 14.1263C0.677241 14.4011 0.628278 14.7302 0.706004 15.0411C0.78373 15.352 0.981778 15.6193 1.25658 15.7842L14.5483 23.7592C14.7362 23.8721 14.9513 23.9317 15.1705 23.9317C15.3898 23.9317 15.6049 23.8721 15.7928 23.7592L29.0845 15.7842C29.3593 15.6193 29.5574 15.352 29.6351 15.0411C29.7128 14.7302 29.6638 14.4011 29.499 14.1263C29.3341 13.8515 29.0668 13.6535 28.7559 13.5758C28.445 13.498 28.1159 13.547 27.8411 13.7119H27.8387Z" fill="black"/>
<path d="M27.8387 19.2315L15.1693 26.8332L2.49995 19.2315C2.36388 19.1499 2.21307 19.0958 2.05611 19.0725C1.89916 19.0491 1.73914 19.0569 1.5852 19.0954C1.43125 19.1339 1.2864 19.2023 1.1589 19.2968C1.0314 19.3913 0.923761 19.5099 0.842119 19.646C0.760478 19.7821 0.706437 19.9329 0.683082 20.0898C0.659726 20.2468 0.667514 20.4068 0.706 20.5607C0.783726 20.8716 0.981775 21.1389 1.25658 21.3038L14.5482 29.2788C14.7362 29.3917 14.9513 29.4514 15.1705 29.4514C15.3898 29.4514 15.6049 29.3917 15.7928 29.2788L29.0845 21.3038C29.3593 21.1389 29.5573 20.8716 29.6351 20.5607C29.7128 20.2498 29.6638 19.9208 29.499 19.646C29.3341 19.3712 29.0668 19.1731 28.7559 19.0954C28.445 19.0177 28.1159 19.0666 27.8411 19.2315H27.8387Z" fill="black"/>
<path d="M15.1686 18.3012C14.5168 18.3008 13.8773 18.1233 13.3186 17.7876L1.2546 10.5485C1.07595 10.4411 0.928126 10.2893 0.825502 10.1078C0.722878 9.92635 0.668945 9.72143 0.668945 9.51297C0.668945 9.3045 0.722878 9.09958 0.825502 8.91813C0.928126 8.73667 1.07595 8.58485 1.2546 8.47743L13.3186 1.2383C13.8773 0.90266 14.5168 0.725342 15.1686 0.725342C15.8203 0.725342 16.4598 0.90266 17.0185 1.2383L29.0825 8.47743C29.2612 8.58485 29.409 8.73667 29.5116 8.91813C29.6142 9.09958 29.6682 9.3045 29.6682 9.51297C29.6682 9.72143 29.6142 9.92635 29.5116 10.1078C29.409 10.2893 29.2612 10.4411 29.0825 10.5485L17.0185 17.7876C16.4598 18.1233 15.8204 18.3008 15.1686 18.3012ZM4.2259 9.51297L14.5644 15.7153C14.747 15.8246 14.9558 15.8822 15.1686 15.8822C15.3813 15.8822 15.5901 15.8246 15.7727 15.7153L26.1112 9.51297L15.7727 3.31059C15.5901 3.20136 15.3813 3.14368 15.1686 3.14368C14.9558 3.14368 14.747 3.20136 14.5644 3.31059L4.2259 9.51297Z" fill="black"/>
</g>
<defs>
<clipPath id="clip0_980_9668">
<rect width="29" height="29" fill="white" transform="translate(0.668945 0.450439)"/>
</clipPath>
</defs>
</svg>
