<svg width="28" height="28" viewBox="0 0 28 28" fill="none" xmlns="http://www.w3.org/2000/svg">
<g clip-path="url(#clip0_980_9663)">
<path d="M14.334 8.12183C11.2324 8.12183 8.70898 10.6452 8.70898 13.7468C8.70898 16.8485 11.2324 19.3718 14.334 19.3718C17.4356 19.3718 19.959 16.8485 19.959 13.7468C19.959 10.6452 17.4356 8.12183 14.334 8.12183ZM14.334 17.1218C12.4732 17.1218 10.959 15.6076 10.959 13.7468C10.959 11.8861 12.4732 10.3718 14.334 10.3718C16.1947 10.3718 17.709 11.8861 17.709 13.7468C17.709 15.6076 16.1947 17.1218 14.334 17.1218ZM27.834 12.6218H25.5277C24.9979 7.3152 20.7656 3.08183 15.459 2.55308V0.246826H13.209V2.55308C7.90236 3.08183 3.66898 7.3152 3.14023 12.6218H0.833984V14.8718H3.14023C3.67011 20.1785 7.90236 24.4118 13.209 24.9406V27.2468H15.459V24.9406C20.7656 24.4107 24.999 20.1785 25.5277 14.8718H27.834V12.6218ZM14.334 22.7468C9.37161 22.7468 5.33398 18.7092 5.33398 13.7468C5.33398 8.78445 9.37161 4.74683 14.334 4.74683C19.2964 4.74683 23.334 8.78445 23.334 13.7468C23.334 18.7092 19.2964 22.7468 14.334 22.7468Z" fill="black"/>
</g>
<defs>
<clipPath id="clip0_980_9663">
<rect width="27" height="27" fill="white" transform="translate(0.833984 0.246826)"/>
</clipPath>
</defs>
</svg>
