<svg width="24" height="24" viewBox="0 0 24 24" fill="none" xmlns="http://www.w3.org/2000/svg">
<path fill-rule="evenodd" clip-rule="evenodd" d="M13.6972 3.66504C14.4714 3.66504 15.1838 4.10563 15.53 4.79805L15.7998 5.33922H17.7944C19.1714 5.33922 20.3057 6.47346 20.3057 7.85048V16.2214C20.3057 17.5984 19.1714 18.7326 17.7944 18.7326H6.07516C4.69814 18.7326 3.56389 17.5984 3.56389 16.2214V7.85048C3.56389 6.47346 4.69814 5.33922 6.07516 5.33922H8.06979L8.33955 4.79805C8.68576 4.10563 9.39816 3.66504 10.1723 3.66504H13.6972ZM13.6972 5.33922H10.1723C10.0288 5.33922 9.90136 5.41849 9.83715 5.54685L9.33523 6.55071C9.26569 6.68975 9.1588 6.80668 9.02654 6.8884C8.89429 6.97012 8.74189 7.0134 8.58643 7.01339H6.07516C5.60293 7.01339 5.23807 7.37825 5.23807 7.85048V16.2214C5.23807 16.6936 5.60293 17.0585 6.07516 17.0585H17.7944C18.2666 17.0585 18.6315 16.6936 18.6315 16.2214V7.85048C18.6315 7.37825 18.2666 7.01339 17.7944 7.01339H15.2831C15.1277 7.0134 14.9753 6.97012 14.843 6.8884C14.7108 6.80668 14.6039 6.68975 14.5343 6.55071L14.0324 5.54685C13.9682 5.41844 13.8408 5.33922 13.6972 5.33922Z" fill="white"/>
<path fill-rule="evenodd" clip-rule="evenodd" d="M22.8172 0.31665C23.0392 0.316673 23.2521 0.404873 23.4091 0.561853C23.5661 0.718833 23.6543 0.931736 23.6543 1.15374V4.50209C23.6543 4.7241 23.5661 4.93702 23.4091 5.094C23.2521 5.25099 23.0392 5.33918 22.8172 5.33918C22.5952 5.33918 22.3823 5.25099 22.2253 5.094C22.0683 4.93702 21.9801 4.7241 21.9801 4.50209V1.99083H19.4689C19.2468 1.99083 19.0339 1.90263 18.8769 1.74565C18.72 1.58867 18.6318 1.37575 18.6318 1.15374C18.6318 0.931729 18.72 0.718812 18.8769 0.561827C19.0339 0.404843 19.2468 0.31665 19.4689 0.31665H22.8172Z" fill="white"/>
<path fill-rule="evenodd" clip-rule="evenodd" d="M22.8172 18.7325C23.0392 18.7325 23.2521 18.8207 23.4091 18.9777C23.5661 19.1347 23.6543 19.3476 23.6543 19.5696V22.918C23.6543 23.14 23.5661 23.3529 23.4091 23.5099C23.2521 23.6669 23.0392 23.7551 22.8172 23.7551H19.4689C19.2468 23.7551 19.0339 23.6669 18.8769 23.5099C18.72 23.3529 18.6318 23.14 18.6318 22.918C18.6318 22.696 18.72 22.4831 18.8769 22.3261C19.0339 22.1691 19.2468 22.0809 19.4689 22.0809H21.9801V19.5696C21.9801 19.3476 22.0683 19.1347 22.2253 18.9777C22.3823 18.8207 22.5952 18.7325 22.8172 18.7325Z" fill="white"/>
<path fill-rule="evenodd" clip-rule="evenodd" d="M4.40119 0.31665C4.6232 0.31665 4.83612 0.404843 4.9931 0.561827C5.15009 0.718812 5.23828 0.931729 5.23828 1.15374C5.23828 1.37575 5.15009 1.58867 4.9931 1.74565C4.83612 1.90263 4.6232 1.99083 4.40119 1.99083H1.88993V4.50209C1.88993 4.7241 1.80174 4.93702 1.64475 5.094C1.48777 5.25099 1.27485 5.33918 1.05284 5.33918C0.83083 5.33918 0.617912 5.25099 0.460927 5.094C0.303943 4.93702 0.215751 4.7241 0.215751 4.50209V1.15374C0.215773 0.931736 0.303974 0.718833 0.460953 0.561853C0.617933 0.404873 0.830836 0.316673 1.05284 0.31665H4.40119Z" fill="white"/>
<path fill-rule="evenodd" clip-rule="evenodd" d="M1.05284 18.7325C1.27485 18.7325 1.48777 18.8207 1.64475 18.9777C1.80174 19.1347 1.88993 19.3476 1.88993 19.5696V22.0809H4.40119C4.6232 22.0809 4.83612 22.1691 4.9931 22.3261C5.15009 22.4831 5.23828 22.696 5.23828 22.918C5.23828 23.14 5.15009 23.3529 4.9931 23.5099C4.83612 23.6669 4.6232 23.7551 4.40119 23.7551H1.05284C0.830836 23.7551 0.617933 23.6669 0.460953 23.5099C0.303974 23.3529 0.215773 23.14 0.215751 22.918V19.5696C0.215751 19.3476 0.303943 19.1347 0.460927 18.9777C0.617912 18.8207 0.83083 18.7325 1.05284 18.7325Z" fill="white"/>
<path fill-rule="evenodd" clip-rule="evenodd" d="M11.9348 8.6875C13.7742 8.6875 15.2832 10.1965 15.2832 12.0359C15.2832 13.8752 13.7742 15.3842 11.9348 15.3842C10.0955 15.3842 8.5865 13.8752 8.5865 12.0359C8.5865 10.1965 10.0955 8.6875 11.9348 8.6875ZM11.9348 10.3617C11.0003 10.3617 10.2607 11.1013 10.2607 12.0359C10.2607 12.9704 11.0003 13.71 11.9348 13.71C12.8694 13.71 13.609 12.9704 13.609 12.0359C13.609 11.1013 12.8694 10.3617 11.9348 10.3617Z" fill="white"/>
</svg>
