<svg width="29" height="29" viewBox="0 0 29 29" fill="none" xmlns="http://www.w3.org/2000/svg">
<path d="M18.2815 16.0605C18.2815 13.8207 16.4596 11.9987 14.2198 11.9987H4.93578C2.69601 11.9987 0.874023 13.8207 0.874023 16.0605C0.874023 17.6771 1.82447 19.0766 3.19503 19.73V22.4433H2.03452C1.39393 22.4433 0.874023 22.962 0.874023 23.6038C0.874023 24.2455 1.39393 24.7643 2.03452 24.7643H3.19503V27.0853C3.19503 27.727 3.71493 28.2458 4.35553 28.2458C4.99612 28.2458 5.51603 27.727 5.51603 27.0853V24.7643H13.6395V27.0853C13.6395 27.727 14.1594 28.2458 14.8 28.2458C15.4406 28.2458 15.9605 27.727 15.9605 27.0853V24.7643H17.121C17.7616 24.7643 18.2815 24.2455 18.2815 23.6038C18.2815 22.962 17.7616 22.4433 17.121 22.4433H15.9605V19.73C17.3311 19.0766 18.2815 17.6771 18.2815 16.0605ZM4.93578 14.3197H14.2198C15.1795 14.3197 15.9605 15.1008 15.9605 16.0605C15.9605 17.0202 15.1795 17.8012 14.2198 17.8012H4.93578C3.97604 17.8012 3.19503 17.0202 3.19503 16.0605C3.19503 15.1008 3.97604 14.3197 4.93578 14.3197ZM5.51603 22.4433V20.1222H13.6395V22.4433H5.51603ZM28.1969 12.1856C28.7168 13.2103 28.8491 14.2838 28.61 15.3526C28.0971 17.6562 25.9594 19.159 23.5444 18.9385C23.3181 18.9107 23.1731 18.9606 23.0663 19.0569C23.0001 19.1149 22.9224 19.2194 22.9224 19.3807V27.0864C22.9224 27.7282 22.4025 28.2469 21.7619 28.2469C21.1213 28.2469 20.6014 27.7282 20.6014 27.0864V19.3807C20.6014 18.5985 20.9345 17.8511 21.5135 17.3301C22.11 16.7939 22.9143 16.5363 23.722 16.6233C25.0067 16.7359 26.0894 15.9967 26.3435 14.8501C26.4631 14.3116 26.3993 13.7755 26.1579 13.3008C25.949 12.8981 25.5126 12.0579 26.1521 10.7129C26.3192 10.3624 26.4027 10.0143 26.4027 9.67889C26.4027 8.92921 26.0337 8.22479 25.414 7.79308C24.5541 7.19078 24.0562 6.17998 24.0817 5.08795C24.0887 4.77345 24.0272 4.452 23.8984 4.13402C23.6373 3.48762 23.0709 2.97932 22.4211 2.80408C21.9824 2.68571 21.5402 2.68571 21.1004 2.80408C20.4505 2.97816 19.8854 3.48762 19.6242 4.13402C19.4954 4.452 19.4328 4.77345 19.4409 5.08795C19.4664 6.17998 18.9686 7.19078 18.1086 7.79192C17.4889 8.22479 17.1187 8.92921 17.1187 9.67889C17.1187 10.3207 16.5988 10.8394 15.9582 10.8394C15.3176 10.8394 14.7977 10.3207 14.7977 9.67889C14.7977 8.1714 15.5381 6.75443 16.7799 5.8887C17.0862 5.674 17.1245 5.32933 17.121 5.14133C17.106 4.50886 17.2243 3.87639 17.4727 3.26248C18.0088 1.93487 19.1415 0.926391 20.5004 0.561994C21.3325 0.340338 22.1913 0.340338 23.021 0.561994C24.3811 0.926391 25.5126 1.93603 26.0499 3.26248C26.2983 3.87639 26.4167 4.50886 26.4016 5.14133C26.3981 5.32817 26.4364 5.674 26.7428 5.88986C27.9833 6.75443 28.7237 8.1714 28.7237 9.67889C28.7237 10.3624 28.5636 11.0448 28.2479 11.7086C28.1272 11.9616 28.1365 12.0649 28.1365 12.0649C28.14 12.0835 28.1737 12.145 28.1945 12.1867L28.1969 12.1856Z" fill="black"/>
</svg>
